<?xml version="1.0" encoding="UTF-8"?>
<svg id="Layer_1" data-name="Layer 1" xmlns="http://www.w3.org/2000/svg" viewBox="0 0 470 345">
  <defs>
    <style>
      .cls-1 {
        fill: #373737;
      }

      .cls-1, .cls-2 {
        stroke-width: 0px;
      }

      .cls-2 {
        fill: #C5F85A;
      }
    </style>
  </defs>
  <rect class="cls-2" x="0" width="470" height="345"/>
  <g>
    <path class="cls-1" d="m271.21,79.88h-22.59c6.53,6.11,10.65,14.96,13.26,23.5,5.17,16.95,5.17,35.14,0,52.09-2.6,8.54-6.73,17.38-13.26,23.5h22.59c10.1-12.93,16.38-31.25,16.37-49.54,0-18.29-6.29-36.61-16.37-49.54h0Z"/>
    <path class="cls-1" d="m307.53,129.42c0-9.89-4.73-37.25-33.94-49.54h28.01s25.23,16.61,25.23,49.54-25.23,49.54-25.23,49.54h-28.01c29.21-12.3,33.94-39.65,33.94-49.54Z"/>
    <path class="cls-1" d="m198.8,79.88h22.59c-6.53,6.11-10.65,14.96-13.26,23.5-5.17,16.95-5.17,35.14,0,52.09,2.6,8.54,6.73,17.38,13.26,23.5h-22.59c-10.1-12.93-16.38-31.25-16.37-49.54,0-18.29,6.29-36.61,16.37-49.54h0Z"/>
    <path class="cls-1" d="m223.68,79.88h22.63v99.09h-22.63v-99.09Z"/>
    <path class="cls-1" d="m162.47,129.42c0-9.89,4.73-37.25,33.94-49.54h-28.01s-25.23,16.61-25.23,49.54c0,32.93,25.23,49.54,25.23,49.54h28.01c-29.21-12.3-33.94-39.65-33.94-49.54Z"/>
  </g>
  <g>
    <path class="cls-1" d="m65.83,202.47h20.77c9.58,0,15.61,5.56,15.61,14.54,0,4.96-2.34,9.25-6.9,11.73,6.5,3.95,8.24,14.54,7.97,22.04h-8.98c0-6.63-.2-19.36-13.47-19.36h-6.03v19.36h-8.98v-48.31Zm27.2,14.54c0-4.22-2.88-6.63-7.71-6.63h-10.52v13.2h10.52c4.82,0,7.71-2.48,7.71-6.57Z"/>
    <path class="cls-1" d="m123.92,215.47c11.39,0,16.88,7.84,16.88,16.21,0,1.41-.13,3.08-.13,3.08-8.98,1.14-17.49,1.34-25.39.47.6,5.69,4.15,8.98,9.31,8.98,3.89,0,6.83-1.74,7.64-4.82h8.38c-1.14,7.57-7.64,11.93-16.21,11.93-11.46,0-17.42-8.84-17.42-17.96s5.56-17.89,16.95-17.89Zm7.77,13.8c-.33-5.02-3.02-7.37-7.77-7.37-4.29,0-7.24,2.48-8.31,6.97,6.77.8,12.13.74,16.08.4Z"/>
    <path class="cls-1" d="m144.82,233.36c0-10.59,7.3-17.89,17.55-17.89,7.97,0,14.47,3.42,16.01,12.13l-8.24.94c-.54-3.42-3.22-5.76-7.77-5.76-5.36,0-8.91,4.15-8.91,10.59s3.55,10.65,8.91,10.65c4.96,0,7.71-2.61,8.24-6.77l8.24-.94c.34,9.58-7.37,15.01-16.48,15.01-10.25,0-17.55-7.3-17.55-17.96Z"/>
    <path class="cls-1" d="m182.41,233.36c0-10.32,7.44-17.89,17.76-17.89s17.76,7.57,17.76,17.89-7.5,17.96-17.76,17.96-17.76-7.57-17.76-17.96Zm26.93,0c0-6.3-3.82-10.59-9.18-10.59s-9.11,4.36-9.11,10.59,3.55,10.65,9.11,10.65,9.18-4.35,9.18-10.65Z"/>
    <path class="cls-1" d="m222.07,216.01h8.44c.8,1.14,1.47,3.55,1.47,5.36,2.28-3.55,6.23-5.9,11.12-5.9,7.5,0,12.6,4.96,12.6,12.53v22.78h-8.38v-20.84c0-4.09-2.61-6.97-6.7-6.97-5.49,0-8.64,4.69-8.64,12.53v15.28h-8.44v-26.8c0-2.88-.13-5.76-1.47-7.97Z"/>
    <path class="cls-1" d="m261.06,233.36c0-10.59,7.3-17.89,17.55-17.89,7.97,0,14.47,3.42,16.01,12.13l-8.24.94c-.54-3.42-3.22-5.76-7.77-5.76-5.36,0-8.91,4.15-8.91,10.59s3.55,10.65,8.91,10.65c4.96,0,7.71-2.61,8.24-6.77l8.24-.94c.34,9.58-7.37,15.01-16.48,15.01-10.25,0-17.55-7.3-17.55-17.96Z"/>
    <path class="cls-1" d="m299.05,205.89c0-3.02,2.48-5.49,5.49-5.49s5.56,2.48,5.56,5.49-2.48,5.56-5.56,5.56-5.49-2.48-5.49-5.56Zm1.41,10.12h8.44v34.77h-8.44v-34.77Z"/>
    <path class="cls-1" d="m316.14,235.91v-33.97h8.44v33.9c0,5.43.4,9.51,3.35,14.94h-8.91c-2.81-5.43-2.88-9.45-2.88-14.87Z"/>
    <path class="cls-1" d="m331.48,205.89c0-3.02,2.48-5.49,5.49-5.49s5.56,2.48,5.56,5.49-2.48,5.56-5.56,5.56-5.49-2.48-5.49-5.56Zm1.41,10.12h8.44v34.77h-8.44v-34.77Z"/>
    <path class="cls-1" d="m364.18,201.33c1.54,0,3.08.13,4.49.47v7.17c-.94-.27-2.21-.4-3.42-.4-2.55,0-4.76,1.74-4.76,5.09v3.28c2.75-.13,5.43-.47,8.17-.94v7.04c-2.75.47-5.43.8-8.17.94v26.8h-8.44v-26.93c-1.94-.2-3.95-.47-5.9-.8v-7.04c1.94.33,3.95.6,5.9.8v-3.95c0-7.84,5.23-11.52,12.13-11.52Z"/>
    <path class="cls-1" d="m404.17,216.01l-14.34,37.12c-2.01,5.29-5.49,10.72-13.6,10.72-1.88,0-3.62-.33-4.82-.74v-7.24s1.74.67,3.75.67c3.62,0,5.43-1.61,7.37-6.57l.13-.27-13.6-33.7h9.31l8.51,22.65,8.78-22.65h8.51Z"/>
  </g>
</svg>