<?xml version="1.0" encoding="UTF-8"?>
<svg id="Layer_1" data-name="Layer 1" xmlns="http://www.w3.org/2000/svg" viewBox="0 0 510 100">
  <defs>
    <style>
      .cls-1 {
        fill: ##373737;
        stroke-width: 0px;
      }
    </style>
  </defs>
  <g>
    <path class="cls-1" d="m132.58,25.59h21.52c9.93,0,16.17,5.76,16.17,15.06,0,5.14-2.43,9.58-7.15,12.15,6.73,4.1,8.54,15.06,8.26,22.84h-9.3c0-6.87-.21-20.06-13.95-20.06h-6.25v20.06h-9.3V25.59Zm28.18,15.06c0-4.37-2.98-6.87-7.98-6.87h-10.9v13.67h10.9c5,0,7.98-2.57,7.98-6.8Z"/>
    <path class="cls-1" d="m192.42,39.06c11.8,0,17.49,8.12,17.49,16.8,0,1.46-.14,3.19-.14,3.19-9.3,1.18-18.12,1.39-26.31.49.62,5.9,4.3,9.3,9.65,9.3,4.03,0,7.08-1.8,7.91-5h8.68c-1.18,7.84-7.91,12.36-16.8,12.36-11.87,0-18.05-9.16-18.05-18.6s5.76-18.53,17.56-18.53Zm8.05,14.3c-.35-5.21-3.12-7.64-8.05-7.64-4.44,0-7.5,2.57-8.61,7.22,7.01.83,12.56.76,16.66.42Z"/>
    <path class="cls-1" d="m213.73,57.59c0-10.97,7.57-18.53,18.19-18.53,8.26,0,14.99,3.54,16.59,12.56l-8.54.97c-.56-3.54-3.33-5.97-8.05-5.97-5.55,0-9.23,4.3-9.23,10.97s3.68,11.04,9.23,11.04c5.14,0,7.98-2.71,8.54-7.01l8.54-.97c.35,9.93-7.64,15.55-17.08,15.55-10.62,0-18.19-7.57-18.19-18.6Z"/>
    <path class="cls-1" d="m252.33,57.59c0-10.69,7.71-18.53,18.4-18.53s18.39,7.84,18.39,18.53-7.77,18.6-18.39,18.6-18.4-7.84-18.4-18.6Zm27.9,0c0-6.52-3.96-10.97-9.51-10.97s-9.44,4.51-9.44,10.97,3.68,11.04,9.44,11.04,9.51-4.51,9.51-11.04Z"/>
    <path class="cls-1" d="m293.08,39.61h8.75c.83,1.18,1.53,3.68,1.53,5.55,2.36-3.68,6.46-6.11,11.52-6.11,7.78,0,13.05,5.14,13.05,12.98v23.6h-8.68v-21.59c0-4.23-2.71-7.22-6.94-7.22-5.69,0-8.95,4.86-8.95,12.98v15.83h-8.75v-27.76c0-2.98-.14-5.97-1.53-8.26Z"/>
    <path class="cls-1" d="m333.13,57.59c0-10.97,7.57-18.53,18.19-18.53,8.26,0,14.99,3.54,16.59,12.56l-8.54.97c-.56-3.54-3.33-5.97-8.05-5.97-5.55,0-9.23,4.3-9.23,10.97s3.68,11.04,9.23,11.04c5.14,0,7.98-2.71,8.54-7.01l8.54-.97c.35,9.93-7.64,15.55-17.08,15.55-10.62,0-18.19-7.57-18.19-18.6Z"/>
    <path class="cls-1" d="m372.14,29.13c0-3.12,2.57-5.69,5.69-5.69s5.76,2.57,5.76,5.69-2.57,5.76-5.76,5.76-5.69-2.57-5.69-5.76Zm1.46,10.48h8.75v36.02h-8.75v-36.02Z"/>
    <path class="cls-1" d="m389.5,60.23V25.04h8.75v35.12c0,5.62.42,9.86,3.47,15.48h-9.23c-2.92-5.62-2.98-9.79-2.98-15.41Z"/>
    <path class="cls-1" d="m405.05,29.13c0-3.12,2.57-5.69,5.69-5.69s5.76,2.57,5.76,5.69-2.57,5.76-5.76,5.76-5.69-2.57-5.69-5.76Zm1.46,10.48h8.75v36.02h-8.75v-36.02Z"/>
    <path class="cls-1" d="m438.57,24.41c1.6,0,3.19.14,4.65.49v7.43c-.97-.28-2.29-.42-3.54-.42-2.64,0-4.93,1.8-4.93,5.27v3.4c2.85-.14,5.62-.49,8.47-.97v7.29c-2.85.49-5.62.83-8.47.97v27.76h-8.75v-27.9c-2.01-.21-4.1-.49-6.11-.83v-7.29c2.01.35,4.09.62,6.11.83v-4.1c0-8.12,5.41-11.94,12.56-11.94Z"/>
    <path class="cls-1" d="m479.67,39.61l-14.86,38.45c-2.08,5.48-5.69,11.11-14.09,11.11-1.94,0-3.75-.35-5-.76v-7.5s1.8.69,3.89.69c3.75,0,5.62-1.67,7.64-6.8l.14-.28-14.09-34.91h9.65l8.82,23.46,9.09-23.46h8.82Z"/>
  </g>
  <g>
    <path class="cls-1" d="m89.62,25.01h-11.4c3.29,3.09,5.38,7.55,6.69,11.86,2.61,8.55,2.61,17.73,0,26.29-1.31,4.31-3.4,8.77-6.69,11.86h11.4c5.1-6.53,8.27-15.77,8.26-25,0-9.23-3.17-18.48-8.26-25h0Z"/>
    <path class="cls-1" d="m107.96,50.01c0-4.99-2.39-18.8-17.13-25h14.14s12.73,8.39,12.73,25-12.73,25-12.73,25h-14.14c14.74-6.21,17.13-20.01,17.13-25Z"/>
    <path class="cls-1" d="m53.08,25.01h11.4c-3.29,3.09-5.38,7.55-6.69,11.86-2.61,8.55-2.61,17.73,0,26.29,1.31,4.31,3.4,8.77,6.69,11.86h-11.4c-5.1-6.53-8.27-15.77-8.26-25,0-9.23,3.17-18.48,8.26-25h0Z"/>
    <path class="cls-1" d="m65.64,25.01h11.42v50.01h-11.42V25.01Z"/>
    <path class="cls-1" d="m34.74,50.01c0-4.99,2.39-18.8,17.13-25h-14.14s-12.73,8.39-12.73,25c0,16.62,12.73,25,12.73,25h14.14c-14.74-6.21-17.13-20.01-17.13-25Z"/>
  </g>
</svg>